<?xml version="1.0" encoding="utf-8"?>
<!-- Generator: Adobe Illustrator 21.1.0, SVG Export Plug-In . SVG Version: 6.00 Build 0)  -->
<svg version="1.1" id="Layer_1" xmlns="http://www.w3.org/2000/svg" xmlns:xlink="http://www.w3.org/1999/xlink" x="0px" y="0px"
	 viewBox="0 0 285.6 85.2" style="enable-background:new 0 0 285.6 85.2;" xml:space="preserve">
<style type="text/css">
	.st0{clip-path:url(#SVGID_2_);}
	.st1{clip-path:url(#SVGID_4_);fill:#FF2538;}
	.st2{clip-path:url(#SVGID_6_);}
	.st3{fill:#FFFFFF;}
	.st4{font-family:'OpenSans-Semibold';}
	.st5{font-size:41.3147px;}
	.st6{fill:#343334;}
	.st7{fill:#7B7B7B;}
	.st8{font-family:'OpenSans';}
	.st9{font-size:12.3309px;}
	.st10{font-size:10.1698px;}
</style>
<g>
	<defs>
		<rect id="SVGID_1_" x="-0.3" y="-0.4" width="118.2" height="85.8"/>
	</defs>
	<clipPath id="SVGID_2_">
		<use xlink:href="#SVGID_1_"  style="overflow:visible;"/>
	</clipPath>
	<g class="st0">
		<defs>
			<rect id="SVGID_3_" x="-13" y="-13.1" width="317.2" height="211"/>
		</defs>
		<clipPath id="SVGID_4_">
			<use xlink:href="#SVGID_3_"  style="overflow:visible;"/>
		</clipPath>
		<rect x="-3.5" y="-3.6" class="st1" width="124.6" height="92.2"/>
	</g>
</g>
<g>
	<defs>
		<rect id="SVGID_5_" x="-13" y="-13.1" width="317.2" height="211"/>
	</defs>
	<clipPath id="SVGID_6_">
		<use xlink:href="#SVGID_5_"  style="overflow:visible;"/>
	</clipPath>
	<g class="st2">
		<text transform="matrix(1 0 0 1 15.7085 56.7891)"><tspan x="0" y="0" class="st3 st4 st5">V</tspan><tspan x="24.9" y="0" class="st3 st4 st5">oIP</tspan></text>
	</g>
	<g class="st2">
		<text transform="matrix(1 0 0 1 130.0122 56.7891)"><tspan x="0" y="0" class="st6 st4 st5">R</tspan><tspan x="26.4" y="0" class="st6 st4 st5">e</tspan><tspan x="49.4" y="0" class="st6 st4 st5">vi</tspan><tspan x="83.1" y="0" class="st6 st4 st5">e</tspan><tspan x="106.1" y="0" class="st6 st4 st5">w</tspan></text>
	</g>
	<g class="st2">
		<text transform="matrix(1 0 0 1 133.1904 75.8574)"><tspan x="0" y="0" class="st7 st8 st9">N</tspan><tspan x="9.3" y="0" class="st7 st8 st9">e</tspan><tspan x="16" y="0" class="st7 st8 st9">ws, ideas and stories</tspan></text>
	</g>
	<g class="st2">
		<text transform="matrix(1 0 0 1 269.2119 26.9165)" class="st6 st4 st10">TM</text>
	</g>
</g>
</svg>
