<?xml version="1.0" encoding="utf-8"?>
<!-- Generator: Adobe Illustrator 21.1.0, SVG Export Plug-In . SVG Version: 6.00 Build 0)  -->
<svg version="1.1" id="Layer_1" xmlns="http://www.w3.org/2000/svg" xmlns:xlink="http://www.w3.org/1999/xlink" x="0px" y="0px"
	 viewBox="0 0 285.6 85.2" style="enable-background:new 0 0 285.6 85.2;" xml:space="preserve">
<style type="text/css">
	.st0{clip-path:url(#SVGID_2_);fill:#FF2538;}
	.st1{clip-path:url(#SVGID_4_);}
	.st2{fill:#FFFFFF;}
	.st3{clip-path:url(#SVGID_6_);}
	.st4{fill:#343334;}
	.st5{clip-path:url(#SVGID_8_);}
	.st6{fill:#7B7B7B;}
	.st7{clip-path:url(#SVGID_10_);}
</style>
<g>
	<g>
		<defs>
			<rect id="SVGID_1_" width="285.6" height="85.2"/>
		</defs>
		<clipPath id="SVGID_2_">
			<use xlink:href="#SVGID_1_"  style="overflow:visible;"/>
		</clipPath>
		<rect x="-3.2" y="-3.2" class="st0" width="116.2" height="91.5"/>
	</g>
	<g>
		<defs>
			<rect id="SVGID_3_" x="-12.4" y="-10.5" width="304.2" height="202.4"/>
		</defs>
		<clipPath id="SVGID_4_">
			<use xlink:href="#SVGID_3_"  style="overflow:visible;"/>
		</clipPath>
		<g class="st1">
			<path class="st2" d="M35,28.2h4.8l-9.9,28.3H25l-9.9-28.3h4.8l5.9,17.6c0.3,0.8,0.6,1.9,1,3.2s0.6,2.3,0.7,3
				c0.2-1,0.4-2.1,0.8-3.4c0.3-1.3,0.6-2.2,0.9-2.9L35,28.2z"/>
			<path class="st2" d="M61.3,45.8c0,3.5-0.9,6.2-2.7,8.2s-4.3,2.9-7.5,2.9c-2,0-3.8-0.5-5.3-1.4s-2.7-2.2-3.5-3.9
				C41.4,50,41,48,41,45.8c0-3.5,0.9-6.2,2.7-8.1s4.3-2.9,7.5-2.9c3.1,0,5.5,1,7.4,3S61.3,42.4,61.3,45.8z M45.7,45.8
				c0,4.9,1.8,7.4,5.5,7.4c3.6,0,5.4-2.5,5.4-7.4s-1.8-7.3-5.5-7.3c-1.9,0-3.3,0.6-4.1,1.9C46.1,41.6,45.7,43.4,45.7,45.8z"/>
			<path class="st2" d="M67,56.5V28.2h4.6v28.3H67z"/>
			<path class="st2" d="M97.8,36.8c0,3-1,5.2-2.9,6.8S90.2,46,86.6,46h-2.9v10.6h-4.6V28.2h8.1c3.5,0,6.2,0.7,7.9,2.2
				C96.9,31.8,97.8,34,97.8,36.8z M83.7,42h2.5c2.4,0,4.1-0.4,5.2-1.2s1.7-2.1,1.7-3.9c0-1.6-0.5-2.8-1.5-3.6s-2.5-1.2-4.6-1.2h-3.2
				L83.7,42L83.7,42z"/>
		</g>
	</g>
	<g>
		<defs>
			<rect id="SVGID_5_" x="-12.4" y="-10.5" width="304.2" height="202.4"/>
		</defs>
		<clipPath id="SVGID_6_">
			<use xlink:href="#SVGID_5_"  style="overflow:visible;"/>
		</clipPath>
		<g class="st3">
			<path class="st4" d="M133.1,45.2v11.3h-4.6V28.2h8c3.6,0,6.4,0.7,8.1,2.1c1.8,1.4,2.6,3.4,2.6,6.2c0,3.5-1.8,6-5.5,7.5l8,12.5
				h-5.3l-6.8-11.3H133.1z M133.1,41.4h3.2c2.2,0,3.7-0.4,4.7-1.2s1.5-2,1.5-3.6s-0.5-2.7-1.6-3.4c-1-0.7-2.6-1-4.7-1h-3.1
				L133.1,41.4L133.1,41.4z"/>
			<path class="st4" d="M162.7,56.9c-3.3,0-5.9-1-7.8-2.9c-1.9-1.9-2.8-4.6-2.8-8c0-3.5,0.9-6.2,2.6-8.2c1.7-2,4.1-3,7.2-3
				c2.8,0,5.1,0.9,6.7,2.6c1.6,1.7,2.5,4.1,2.5,7.1V47h-14.3c0.1,2.1,0.6,3.7,1.7,4.8c1.1,1.1,2.5,1.7,4.5,1.7
				c1.3,0,2.4-0.1,3.5-0.4c1.1-0.2,2.3-0.6,3.5-1.2v3.7c-1.1,0.5-2.2,0.9-3.4,1.1C165.5,56.8,164.2,56.9,162.7,56.9z M161.9,38.2
				c-1.4,0-2.6,0.5-3.5,1.4s-1.4,2.3-1.6,4h9.7c0-1.8-0.5-3.1-1.3-4S163.3,38.2,161.9,38.2z"/>
			<path class="st4" d="M180.3,56.5l-8.1-21.4h4.8l4.4,12.4c0.7,2.1,1.2,3.8,1.4,5.1h0.2c0.1-0.9,0.6-2.6,1.4-5.1l4.4-12.4h4.8
				l-8.2,21.4H180.3z"/>
			<path class="st4" d="M196.4,29.5c0-0.8,0.2-1.4,0.7-1.9c0.4-0.4,1.1-0.7,1.9-0.7c0.8,0,1.4,0.2,1.9,0.7c0.4,0.4,0.7,1.1,0.7,1.9
				s-0.2,1.4-0.7,1.8c-0.4,0.4-1.1,0.7-1.9,0.7c-0.8,0-1.5-0.2-1.9-0.7C196.6,30.8,196.4,30.2,196.4,29.5z M201.2,56.5h-4.5V35.1
				h4.5V56.5z"/>
			<path class="st4" d="M217,56.9c-3.3,0-5.9-1-7.8-2.9c-1.9-1.9-2.8-4.6-2.8-8c0-3.5,0.9-6.2,2.6-8.2c1.7-2,4.1-3,7.2-3
				c2.8,0,5.1,0.9,6.7,2.6c1.6,1.7,2.5,4.1,2.5,7.1V47h-14.3c0.1,2.1,0.6,3.7,1.7,4.8c1.1,1.1,2.5,1.7,4.5,1.7
				c1.3,0,2.4-0.1,3.5-0.4c1.1-0.2,2.3-0.6,3.5-1.2v3.7c-1.1,0.5-2.2,0.9-3.4,1.1C219.8,56.8,218.5,56.9,217,56.9z M216.2,38.2
				c-1.4,0-2.6,0.5-3.5,1.4s-1.4,2.3-1.6,4h9.7c0-1.8-0.5-3.1-1.3-4S217.6,38.2,216.2,38.2z"/>
			<path class="st4" d="M247.3,56.5l-2.8-10c-0.3-1.1-0.9-3.5-1.8-7.4h-0.2c-0.7,3.5-1.3,6-1.8,7.4l-2.8,9.9h-5l-6-21.4h4.6
				l2.7,10.5c0.6,2.6,1.1,4.8,1.3,6.7h0.1c0.1-0.9,0.3-2,0.6-3.2s0.5-2.1,0.7-2.7l3.2-11.3h5l3.2,11.3c0.2,0.6,0.4,1.6,0.7,2.9
				c0.3,1.3,0.5,2.3,0.5,3h0.2c0.2-1.6,0.6-3.8,1.4-6.7l2.8-10.5h4.6l-6,21.4L247.3,56.5L247.3,56.5z"/>
		</g>
	</g>
	<g>
		<defs>
			<rect id="SVGID_7_" x="-12.4" y="-10.5" width="304.2" height="202.4"/>
		</defs>
		<clipPath id="SVGID_8_">
			<use xlink:href="#SVGID_7_"  style="overflow:visible;"/>
		</clipPath>
		<g class="st5">
			<path class="st6" d="M135.6,74.8h-1.1l-4.6-7.1l0,0c0.1,0.8,0.1,1.6,0.1,2.3v4.8h-1v-8.4h1.1l4.6,7.1l0,0c0-0.1,0-0.4-0.1-1
				c0-0.6,0-1,0-1.2v-4.8h0.9v8.3H135.6z"/>
			<path class="st6" d="M140.4,74.9c-0.9,0-1.7-0.3-2.2-0.9s-0.8-1.4-0.8-2.4s0.3-1.8,0.8-2.4s1.2-0.9,2-0.9s1.4,0.3,1.9,0.8
				s0.7,1.2,0.7,2.1v0.6h-4.4c0,0.7,0.2,1.3,0.6,1.7c0.4,0.4,0.9,0.6,1.5,0.6c0.7,0,1.4-0.1,2-0.4v0.9c-0.3,0.1-0.7,0.3-1,0.3
				S140.9,74.9,140.4,74.9z M140.2,69.2c-0.5,0-0.9,0.2-1.2,0.5s-0.5,0.8-0.5,1.4h3.3c0-0.6-0.1-1.1-0.4-1.4
				C141.1,69.3,140.7,69.2,140.2,69.2z"/>
			<path class="st6" d="M149.3,74.8l-1.2-3.7c-0.1-0.2-0.2-0.7-0.4-1.5l0,0c-0.2,0.7-0.3,1.2-0.4,1.6l-1.2,3.7H145l-1.7-6.3h1
				c0.4,1.6,0.7,2.8,0.9,3.6c0.2,0.8,0.3,1.4,0.4,1.7l0,0c0-0.2,0.1-0.5,0.2-0.9s0.2-0.6,0.2-0.8l1.2-3.6h1l1.1,3.6
				c0.2,0.7,0.4,1.2,0.4,1.7l0,0c0-0.1,0.1-0.4,0.1-0.6c0.1-0.3,0.5-1.8,1.2-4.7h1l-1.7,6.3L149.3,74.8L149.3,74.8z"/>
			<path class="st6" d="M157.4,73.1c0,0.6-0.2,1-0.7,1.4c-0.4,0.3-1.1,0.5-1.8,0.5c-0.8,0-1.5-0.1-2-0.4v-0.9c0.3,0.2,0.6,0.3,1,0.4
				c0.3,0.1,0.7,0.1,1,0.1c0.5,0,0.9-0.1,1.2-0.2c0.3-0.2,0.4-0.4,0.4-0.7c0-0.2-0.1-0.5-0.3-0.6c-0.2-0.2-0.6-0.4-1.2-0.6
				c-0.6-0.2-1-0.4-1.3-0.6c-0.2-0.2-0.4-0.3-0.6-0.6S153,70.3,153,70c0-0.5,0.2-0.9,0.6-1.2c0.4-0.3,1-0.4,1.7-0.4s1.3,0.1,2,0.4
				l-0.3,0.8c-0.6-0.3-1.2-0.4-1.7-0.4s-0.8,0.1-1,0.2S154,69.7,154,70c0,0.2,0,0.3,0.1,0.4s0.2,0.2,0.4,0.3
				c0.2,0.1,0.6,0.3,1.1,0.5c0.8,0.3,1.3,0.5,1.5,0.8S157.4,72.7,157.4,73.1z"/>
			<path class="st6" d="M160,73.4l0.1,0.1c-0.1,0.4-0.2,0.8-0.4,1.3s-0.4,1-0.6,1.4h-0.7c0.1-0.4,0.2-0.9,0.3-1.5s0.2-1.1,0.3-1.4
				L160,73.4L160,73.4z"/>
			<path class="st6" d="M164.9,66.8c0-0.2,0.1-0.4,0.2-0.5c0.1-0.1,0.2-0.2,0.4-0.2s0.3,0.1,0.4,0.2c0.1,0.1,0.2,0.3,0.2,0.5
				s-0.1,0.4-0.2,0.5c-0.1,0.1-0.2,0.2-0.4,0.2s-0.3-0.1-0.4-0.2C164.9,67.1,164.9,67,164.9,66.8z M165.9,74.8h-1v-6.3h1V74.8z"/>
			<path class="st6" d="M172.3,74L172.3,74c-0.5,0.6-1.2,1-2,1s-1.5-0.3-1.9-0.8c-0.5-0.6-0.7-1.4-0.7-2.4s0.2-1.9,0.7-2.4
				s1.1-0.9,1.9-0.9c0.9,0,1.5,0.3,2,0.9h0.1v-0.5v-0.4v-2.6h1v9h-0.8L172.3,74z M170.4,74.1c0.7,0,1.1-0.2,1.4-0.5
				c0.3-0.4,0.4-0.9,0.4-1.7v-0.2c0-0.9-0.1-1.5-0.4-1.9c-0.3-0.4-0.8-0.6-1.4-0.6c-0.6,0-1,0.2-1.3,0.7c-0.3,0.4-0.4,1.1-0.4,1.9
				s0.1,1.4,0.4,1.8C169.3,73.9,169.8,74.1,170.4,74.1z"/>
			<path class="st6" d="M177.9,74.9c-0.9,0-1.7-0.3-2.2-0.9s-0.8-1.4-0.8-2.4s0.3-1.8,0.8-2.4s1.2-0.9,2-0.9s1.4,0.3,1.9,0.8
				s0.7,1.2,0.7,2.1v0.6h-4.4c0,0.7,0.2,1.3,0.6,1.7c0.4,0.4,0.9,0.6,1.5,0.6c0.7,0,1.4-0.1,2-0.4v0.9c-0.3,0.1-0.7,0.3-1,0.3
				C178.7,74.9,178.3,74.9,177.9,74.9z M177.6,69.2c-0.5,0-0.9,0.2-1.2,0.5s-0.5,0.8-0.5,1.4h3.3c0-0.6-0.1-1.1-0.4-1.4
				S178.1,69.2,177.6,69.2z"/>
			<path class="st6" d="M185.7,74.8l-0.2-0.9l0,0c-0.3,0.4-0.6,0.7-0.9,0.8c-0.3,0.1-0.7,0.2-1.2,0.2c-0.6,0-1.1-0.2-1.5-0.5
				s-0.5-0.8-0.5-1.4c0-1.3,1-1.9,3.1-2h1.1v-0.4c0-0.5-0.1-0.9-0.3-1.1s-0.6-0.4-1-0.4c-0.5,0-1.1,0.2-1.8,0.5l-0.3-0.7
				c0.3-0.2,0.7-0.3,1-0.4c0.4-0.1,0.7-0.1,1.1-0.1c0.8,0,1.3,0.2,1.7,0.5s0.5,0.9,0.5,1.6v4.3H185.7z M183.6,74.1
				c0.6,0,1.1-0.2,1.4-0.5c0.3-0.3,0.5-0.8,0.5-1.4v-0.6h-1c-0.8,0-1.3,0.1-1.6,0.4s-0.5,0.5-0.5,1c0,0.3,0.1,0.6,0.3,0.8
				C182.9,74,183.2,74.1,183.6,74.1z"/>
			<path class="st6" d="M192.5,73.1c0,0.6-0.2,1-0.7,1.4c-0.4,0.3-1.1,0.5-1.8,0.5c-0.8,0-1.5-0.1-2-0.4v-0.9c0.3,0.2,0.6,0.3,1,0.4
				c0.3,0.1,0.7,0.1,1,0.1c0.5,0,0.9-0.1,1.2-0.2c0.3-0.2,0.4-0.4,0.4-0.7c0-0.2-0.1-0.5-0.3-0.6c-0.2-0.2-0.6-0.4-1.2-0.6
				c-0.6-0.2-1-0.4-1.3-0.6c-0.2-0.2-0.4-0.3-0.6-0.6S188,70.3,188,70c0-0.5,0.2-0.9,0.6-1.2c0.4-0.3,1-0.4,1.7-0.4s1.3,0.1,2,0.4
				l-0.3,0.8c-0.6-0.3-1.2-0.4-1.7-0.4s-0.8,0.1-1,0.2S189,69.7,189,70c0,0.2,0,0.3,0.1,0.4s0.2,0.2,0.4,0.3
				c0.2,0.1,0.6,0.3,1.1,0.5c0.8,0.3,1.3,0.5,1.5,0.8S192.5,72.7,192.5,73.1z"/>
			<path class="st6" d="M201,74.8l-0.2-0.9l0,0c-0.3,0.4-0.6,0.7-0.9,0.8c-0.3,0.1-0.7,0.2-1.2,0.2c-0.6,0-1.1-0.2-1.5-0.5
				s-0.5-0.8-0.5-1.4c0-1.3,1-1.9,3.1-2h1.1v-0.4c0-0.5-0.1-0.9-0.3-1.1s-0.6-0.4-1-0.4c-0.5,0-1.1,0.2-1.8,0.5l-0.3-0.7
				c0.3-0.2,0.7-0.3,1-0.4c0.4-0.1,0.7-0.1,1.1-0.1c0.8,0,1.3,0.2,1.7,0.5s0.5,0.9,0.5,1.6v4.3H201z M198.9,74.1
				c0.6,0,1.1-0.2,1.4-0.5c0.3-0.3,0.5-0.8,0.5-1.4v-0.6h-1c-0.8,0-1.3,0.1-1.6,0.4s-0.5,0.5-0.5,1c0,0.3,0.1,0.6,0.3,0.8
				C198.2,74,198.5,74.1,198.9,74.1z"/>
			<path class="st6" d="M208,74.8v-4.1c0-0.5-0.1-0.9-0.4-1.2c-0.2-0.3-0.6-0.4-1.1-0.4c-0.7,0-1.1,0.2-1.5,0.5
				c-0.3,0.4-0.5,0.9-0.5,1.8v3.3h-1v-6.3h0.8l0.2,0.9l0,0c0.2-0.3,0.5-0.6,0.8-0.7c0.4-0.2,0.7-0.3,1.2-0.3c0.8,0,1.3,0.2,1.7,0.6
				s0.6,1,0.6,1.8v4.1C208.8,74.8,208,74.8,208,74.8z"/>
			<path class="st6" d="M215.3,74L215.3,74c-0.5,0.6-1.2,1-2,1s-1.5-0.3-1.9-0.8c-0.5-0.6-0.7-1.4-0.7-2.4s0.2-1.9,0.7-2.4
				s1.1-0.9,1.9-0.9c0.9,0,1.5,0.3,2,0.9h0.1v-0.5v-0.4v-2.6h1v9h-0.8L215.3,74z M213.4,74.1c0.7,0,1.1-0.2,1.4-0.5
				c0.3-0.4,0.4-0.9,0.4-1.7v-0.2c0-0.9-0.1-1.5-0.4-1.9c-0.3-0.4-0.8-0.6-1.4-0.6c-0.6,0-1,0.2-1.3,0.7c-0.3,0.4-0.4,1.1-0.4,1.9
				s0.1,1.4,0.4,1.8C212.4,73.9,212.8,74.1,213.4,74.1z"/>
			<path class="st6" d="M225.4,73.1c0,0.6-0.2,1-0.7,1.4c-0.4,0.3-1.1,0.5-1.8,0.5c-0.8,0-1.5-0.1-2-0.4v-0.9c0.3,0.2,0.6,0.3,1,0.4
				c0.3,0.1,0.7,0.1,1,0.1c0.5,0,0.9-0.1,1.2-0.2c0.3-0.2,0.4-0.4,0.4-0.7c0-0.2-0.1-0.5-0.3-0.6c-0.2-0.2-0.6-0.4-1.2-0.6
				c-0.6-0.2-1-0.4-1.3-0.6c-0.2-0.2-0.4-0.3-0.6-0.6s-0.2-0.5-0.2-0.7c0-0.5,0.2-0.9,0.6-1.2c0.4-0.3,1-0.4,1.7-0.4s1.3,0.1,2,0.4
				l-0.3,0.8c-0.6-0.3-1.2-0.4-1.7-0.4s-0.8,0.1-1,0.2s-0.3,0.3-0.3,0.6c0,0.2,0,0.3,0.1,0.4s0.2,0.2,0.4,0.3
				c0.2,0.1,0.6,0.3,1.1,0.5c0.8,0.3,1.3,0.5,1.5,0.8S225.4,72.7,225.4,73.1z"/>
			<path class="st6" d="M229,74.1c0.2,0,0.3,0,0.5,0s0.3-0.1,0.4-0.1v0.7c-0.1,0-0.3,0.1-0.5,0.1s-0.4,0-0.5,0
				c-1.2,0-1.8-0.6-1.8-1.9v-3.8h-0.9v-0.5l0.9-0.4l0.4-1.4h0.6v1.5h1.8V69H228v3.7c0,0.4,0.1,0.7,0.3,0.9S228.7,74.1,229,74.1z"/>
			<path class="st6" d="M236.6,71.6c0,1-0.3,1.8-0.8,2.4s-1.2,0.9-2.2,0.9c-0.6,0-1.1-0.1-1.5-0.4s-0.8-0.6-1-1.1s-0.4-1.1-0.4-1.7
				c0-1,0.3-1.8,0.8-2.4s1.2-0.9,2.1-0.9c0.9,0,1.6,0.3,2.1,0.9S236.6,70.6,236.6,71.6z M231.7,71.6c0,0.8,0.2,1.4,0.5,1.8
				s0.8,0.6,1.4,0.6c0.6,0,1.1-0.2,1.4-0.6c0.3-0.4,0.5-1,0.5-1.9c0-0.8-0.2-1.4-0.5-1.8s-0.8-0.6-1.4-0.6c-0.6,0-1.1,0.2-1.4,0.6
				C231.9,70.2,231.7,70.8,231.7,71.6z"/>
			<path class="st6" d="M241.1,68.4c0.3,0,0.5,0,0.8,0.1l-0.1,0.9c-0.3-0.1-0.5-0.1-0.7-0.1c-0.5,0-1,0.2-1.3,0.6
				c-0.4,0.4-0.5,0.9-0.5,1.6v3.4h-1v-6.3h0.8l0.1,1.2l0,0c0.2-0.4,0.5-0.7,0.8-1C240.4,68.5,240.7,68.4,241.1,68.4z"/>
			<path class="st6" d="M243,66.8c0-0.2,0.1-0.4,0.2-0.5c0.1-0.1,0.2-0.2,0.4-0.2s0.3,0.1,0.4,0.2c0.1,0.1,0.2,0.3,0.2,0.5
				s-0.1,0.4-0.2,0.5c-0.1,0.1-0.2,0.2-0.4,0.2s-0.3-0.1-0.4-0.2C243,67.1,243,67,243,66.8z M244,74.8h-1v-6.3h1V74.8z"/>
			<path class="st6" d="M248.7,74.9c-0.9,0-1.7-0.3-2.2-0.9s-0.8-1.4-0.8-2.4s0.3-1.8,0.8-2.4s1.2-0.9,2-0.9s1.4,0.3,1.9,0.8
				s0.7,1.2,0.7,2.1v0.6h-4.4c0,0.7,0.2,1.3,0.6,1.7c0.4,0.4,0.9,0.6,1.5,0.6c0.7,0,1.4-0.1,2-0.4v0.9c-0.3,0.1-0.7,0.3-1,0.3
				C249.5,74.9,249.2,74.9,248.7,74.9z M248.5,69.2c-0.5,0-0.9,0.2-1.2,0.5s-0.5,0.8-0.5,1.4h3.3c0-0.6-0.1-1.1-0.4-1.4
				S249,69.2,248.5,69.2z"/>
			<path class="st6" d="M256.8,73.1c0,0.6-0.2,1-0.7,1.4c-0.4,0.3-1.1,0.5-1.8,0.5c-0.8,0-1.5-0.1-2-0.4v-0.9c0.3,0.2,0.6,0.3,1,0.4
				c0.3,0.1,0.7,0.1,1,0.1c0.5,0,0.9-0.1,1.2-0.2c0.3-0.2,0.4-0.4,0.4-0.7c0-0.2-0.1-0.5-0.3-0.6c-0.2-0.2-0.6-0.4-1.2-0.6
				c-0.6-0.2-1-0.4-1.3-0.6c-0.2-0.2-0.4-0.3-0.6-0.6s-0.2-0.5-0.2-0.7c0-0.5,0.2-0.9,0.6-1.2c0.4-0.3,1-0.4,1.7-0.4s1.3,0.1,2,0.4
				l-0.3,0.8c-0.6-0.3-1.2-0.4-1.7-0.4s-0.8,0.1-1,0.2s-0.3,0.3-0.3,0.6c0,0.2,0,0.3,0.1,0.4s0.2,0.2,0.4,0.3
				c0.2,0.1,0.6,0.3,1.1,0.5c0.8,0.3,1.3,0.5,1.5,0.8S256.8,72.7,256.8,73.1z"/>
		</g>
	</g>
	<g>
		<defs>
			<rect id="SVGID_9_" x="-12.4" y="-10.5" width="304.2" height="202.4"/>
		</defs>
		<clipPath id="SVGID_10_">
			<use xlink:href="#SVGID_9_"  style="overflow:visible;"/>
		</clipPath>
		<g class="st7">
			<path class="st4" d="M261.6,27.9h-1.1v-6h-2v-1h5.2v1h-2v6H261.6z"/>
			<path class="st4" d="M267.7,27.9l-2-5.8l0,0c0.1,0.9,0.1,1.7,0.1,2.4v3.4h-1v-7h1.6l1.9,5.5l0,0l2-5.5h1.6v7h-1.1v-3.4
				c0-0.3,0-0.8,0-1.4s0-0.9,0-1l0,0l-2.1,5.8C268.7,27.9,267.7,27.9,267.7,27.9z"/>
		</g>
	</g>
</g>
</svg>
